<svg xmlns="http://www.w3.org/2000/svg" width="85" height="85" viewBox="0 0 85 85"><g><g><g><path d="M39.101 57.652c.648-.65.648-1.7 0-2.35a1.663 1.663 0 0 0-2.348 0c-.647.65-.647 1.7 0 2.35.65.647 1.7.647 2.348 0z"/></g><g><path fill="#32325f" d="M64.435 18.257c0 8.236-6.7 14.937-14.937 14.937-8.237 0-14.938-6.7-14.938-14.937 0-8.236 6.701-14.937 14.938-14.937 8.237 0 14.937 6.7 14.937 14.937zm-33.194 0c0 10.066 8.19 18.257 18.257 18.257 10.067 0 18.256-8.19 18.256-18.257C67.754 8.19 59.564 0 49.498 0 39.43 0 31.24 8.19 31.24 18.257z"/></g><g><path fill="#32325f" d="M10.768 57.818a1.656 1.656 0 0 1 2.055-.234c.287.175-.538-.576 14.375 14.316.663.664.628 1.72.01 2.34l-6.86 6.757L4.038 64.565zm20.805-11.015c2.542 0 5 .512 7.306 1.521.21.092.437.14.666.14h18.847c1.8 0 3.32 1.467 3.32 3.319 0 1.83-1.49 3.32-3.32 3.32H44.851a1.66 1.66 0 0 0 0 3.318h13.541a6.646 6.646 0 0 0 6.58-7.506c9.474-9.739 10.81-11.107 10.867-11.175a3.33 3.33 0 0 1 4.68-.396 3.326 3.326 0 0 1 .389 4.685L66.022 61.825a11.557 11.557 0 0 1-8.045 3.236H35.913a8.252 8.252 0 0 0-5.761 2.326l-1.41 1.362-13.003-13.002c3.039-5.701 8.741-8.944 15.834-8.944zM19.156 84.51a1.66 1.66 0 0 0 2.342.014l8.047-7.928c1.367-1.367 1.783-3.39 1.181-5.15l1.731-1.67a4.95 4.95 0 0 1 3.456-1.395h22.064a14.86 14.86 0 0 0 10.419-4.233c.115-.112-.876 1.056 15.052-17.982 2.363-2.795 2.01-6.992-.788-9.357-2.78-2.343-6.945-2.006-9.314.74l-9.794 10.067a6.67 6.67 0 0 0-5.16-2.471H39.885a21.412 21.412 0 0 0-8.312-1.66c-7.992 0-14.97 3.692-18.715 10.612a4.958 4.958 0 0 0-4.44 1.376L.524 63.39a1.66 1.66 0 0 0-.002 2.34z"/></g><g><path d="M47.506 8.299v1.945a4.987 4.987 0 0 0-3.32 4.694 4.985 4.985 0 0 0 4.98 4.979c.915 0 1.66.744 1.66 1.66 0 .914-.745 1.659-1.66 1.659-.709 0-1.475-.446-2.155-1.256a1.66 1.66 0 0 0-2.54 2.136c.886 1.055 1.93 1.79 3.035 2.162v1.937a1.66 1.66 0 1 0 3.32 0V26.27a4.988 4.988 0 0 0 3.32-4.694 4.985 4.985 0 0 0-4.98-4.979c-.915 0-1.66-.744-1.66-1.66 0-.914.745-1.66 1.66-1.66.588 0 1.209.3 1.795.868a1.66 1.66 0 0 0 2.309-2.385c-.843-.815-1.686-1.276-2.445-1.528V8.299a1.66 1.66 0 1 0-3.319 0z"/></g></g></g></svg>