<svg xmlns="http://www.w3.org/2000/svg" width="86" height="85" viewBox="0 0 86 85"><g><g><g><path fill="#32325f" d="M35.563 51.797a1.66 1.66 0 1 0 0 3.322 1.66 1.66 0 0 0 0-3.322z"/></g><g><path fill="#32325f" d="M35.563 61.758a1.66 1.66 0 1 0 0 3.322 1.66 1.66 0 0 0 0-3.322z"/></g><g><path fill="#32325f" d="M64.117 51.797H42.203a1.66 1.66 0 1 0 0 3.32h21.914a1.66 1.66 0 1 0 0-3.32z"/></g><g><path fill="#32325f" d="M64.117 61.758H42.203a1.66 1.66 0 1 0 0 3.32h21.914a1.66 1.66 0 1 0 0-3.32z"/></g><g><path fill="#32325f" d="M10.583 68.398a18.4 18.4 0 0 1-3.243 8.84 18.4 18.4 0 0 1-3.243-8.84zM7.34 3.32c.916 0 1.66.745 1.66 1.66v1.873a6.614 6.614 0 0 0-3.32 0V4.98c0-.915.744-1.66 1.66-1.66zM4.02 16.602v-3.32A3.326 3.326 0 0 1 7.34 9.96a3.324 3.324 0 0 1 3.32 3.32v3.32zm6.64 48.476H4.02V19.922h6.64zM5.68 80.573v2.767a1.66 1.66 0 1 0 3.32 0v-2.767l.664-.885a21.716 21.716 0 0 0 4.316-12.95V19.922h1.66c.916 0 1.66.744 1.66 1.66v15.273a1.66 1.66 0 1 0 3.321 0V21.582a4.986 4.986 0 0 0-4.98-4.98h-1.66v-3.32a6.587 6.587 0 0 0-1.66-4.39V4.98A4.986 4.986 0 0 0 7.34 0a4.986 4.986 0 0 0-4.98 4.98v3.914A6.638 6.638 0 0 0 .7 13.28v53.457c0 4.64 1.532 9.239 4.316 12.95z"/></g><g><path fill="#32325f" d="M82.379 25.234h-6.64v-6.64a3.32 3.32 0 1 1 6.64 0zm-9.961-6.64v57.75c0 2.75-1.993 5.336-4.98 5.336a4.986 4.986 0 0 1-4.981-4.98v-3.321a1.66 1.66 0 0 0-1.66-1.66H27.262V20.254c0-2.746 2.234-4.997 4.98-4.997h41.064a6.697 6.697 0 0 0-.888 3.337zM28.922 81.68c-4.008 0-7.363-2.857-8.134-6.64h38.349v1.66a8.26 8.26 0 0 0 1.664 4.98zm56.777-54.785v-8.301c0-3.662-2.979-6.64-6.64-6.64H32.242c-4.577 0-8.3 3.723-8.3 8.3v51.465H18.96a1.66 1.66 0 0 0-1.66 1.66C17.3 79.787 22.514 85 28.92 85h38.517c4.859 0 8.3-4.138 8.3-8.656v-47.79h8.301a1.66 1.66 0 0 0 1.66-1.66z"/></g><g><path fill="#32325f" d="M44.054 25.234c3.031 0 4.106 3.617 4.15 3.771.2.712.85 1.202 1.59 1.206h.009c.74 0 1.392-.494 1.596-1.206.045-.154 1.12-3.77 4.148-3.77 2.33 0 4.088 1.968 4.088 4.578 0 3.188-2.983 5.705-7.924 9.876-.62.522-1.253 1.057-1.91 1.618-.656-.561-1.29-1.096-1.91-1.619-4.94-4.17-7.923-6.687-7.923-9.875 0-2.61 1.757-4.579 4.086-4.579zm1.696 16.992c.947.799 1.926 1.625 2.965 2.525a1.656 1.656 0 0 0 2.174 0c1.038-.9 2.017-1.726 2.964-2.525 5.284-4.46 9.102-7.682 9.102-12.413 0-4.43-3.253-7.899-7.407-7.899-2.793 0-4.615 1.497-5.746 3.02-1.132-1.523-2.954-3.02-5.748-3.02-4.153 0-7.406 3.47-7.406 7.899 0 4.731 3.818 7.953 9.102 12.413z"/></g></g></g></svg>